<?xml version="1.0" encoding="UTF-8" standalone="no"?>
<!-- Created with Inkscape (http://www.inkscape.org/) -->

<svg
   width="512"
   height="512"
   viewBox="0 0 135.46666 135.46667"
   version="1.1"
   id="svg1"
   inkscape:export-filename="ins-mandoom.svg"
   inkscape:export-xdpi="96"
   inkscape:export-ydpi="96"
   inkscape:version="1.4.2 (ebf0e940d0, 2025-05-08)"
   sodipodi:docname="mandoom3.svg"
   xmlns:inkscape="http://www.inkscape.org/namespaces/inkscape"
   xmlns:sodipodi="http://sodipodi.sourceforge.net/DTD/sodipodi-0.dtd"
   xmlns="http://www.w3.org/2000/svg"
   xmlns:svg="http://www.w3.org/2000/svg">
  <sodipodi:namedview
     id="namedview1"
     pagecolor="#505050"
     bordercolor="#ffffff"
     borderopacity="1"
     inkscape:showpageshadow="0"
     inkscape:pageopacity="0"
     inkscape:pagecheckerboard="1"
     inkscape:deskcolor="#505050"
     inkscape:document-units="mm"
     inkscape:zoom="1.4253648"
     inkscape:cx="334.30038"
     inkscape:cy="293.95983"
     inkscape:window-width="1920"
     inkscape:window-height="1008"
     inkscape:window-x="0"
     inkscape:window-y="0"
     inkscape:window-maximized="1"
     inkscape:current-layer="layer1" />
  <defs
     id="defs1">
    <rect
       x="90.50315"
       y="403.40551"
       width="342.3685"
       height="77.173228"
       id="rect2" />
    <filter
       inkscape:collect="always"
       style="color-interpolation-filters:sRGB"
       id="filter1"
       x="-0.022184432"
       y="-0.022227845"
       width="1.0443689"
       height="1.0444557">
      <feGaussianBlur
         inkscape:collect="always"
         stdDeviation="1.2423916"
         id="feGaussianBlur1" />
    </filter>
    <rect
       x="90.503151"
       y="403.40552"
       width="342.3685"
       height="77.173225"
       id="rect2-3" />
  </defs>
  <g
     inkscape:label="Слой 1"
     inkscape:groupmode="layer"
     id="layer1">
    <rect
       style="mix-blend-mode:normal;fill:#121f2f;stroke-width:0.264583;filter:url(#filter1);fill-opacity:1"
       id="rect1"
       width="134.40686"
       height="134.14435"
       x="1.5750804"
       y="0.7875402"
       transform="matrix(0.96446718,0,0,0.9681479,0.85948624,1.3964539)" />
    <path
       id="path2-1"
       style="fill:#ffffff;stroke:#612e74;stroke-width:0.360193;stroke-opacity:1"
       sodipodi:type="inkscape:offset"
       inkscape:radius="0"
       inkscape:original="M 33.794922 44.310547 C 31.042878 44.310547 28.317117 44.292426 25.582031 44.476562 C 24.947229 44.519323 24.30539 44.421124 23.671875 44.476562 C 23.286521 44.510286 22.911323 44.616441 22.525391 44.644531 C 22.144704 44.672311 21.756703 44.584721 21.380859 44.644531 C 21.043526 44.698207 20.754182 44.892286 20.425781 44.978516 C 18.726081 45.424802 20.182002 44.961821 18.705078 45.146484 C 17.866366 45.251357 17.030184 45.637768 16.222656 45.814453 C 16.099123 45.841483 15.962591 45.779243 15.841797 45.814453 C 15.463056 45.924951 15.245147 46.49354 14.886719 46.650391 C 14.706641 46.729195 14.473566 46.71069 14.3125 46.816406 C 14.198605 46.89117 14.194334 47.045504 14.121094 47.152344 C 12.984289 48.810587 14.613203 46.381067 13.166016 48.154297 C 12.835027 48.559862 12.772942 49.113773 12.402344 49.492188 C 12.195164 49.703719 11.845845 49.782596 11.638672 49.994141 C 11.019546 50.62632 9.1655426 54.022383 9.7285156 55.007812 C 10.612533 56.555228 12.300308 57.707845 13.740234 58.853516 C 14.139979 59.17157 14.464867 59.560099 14.886719 59.855469 C 16.274295 60.827003 17.77689 61.460345 19.087891 62.53125 C 19.614478 62.961404 20.076865 63.450306 20.615234 63.869141 C 23.062593 65.773101 21.850358 64.564695 23.863281 66.208984 C 25.835325 67.819872 27.56921 69.662835 29.402344 71.390625 C 30.640352 72.557491 32.084276 73.679973 33.603516 74.566406 C 35.131534 75.457969 32.904385 73.953907 34.177734 75.068359 C 34.098151 75.054429 34.05 75.068359 33.986328 75.068359 L 32.458984 75.068359 L 28.447266 75.068359 C 27.580949 75.068359 26.633885 75.152039 25.773438 75.068359 C 24.87568 74.981057 23.997366 74.821675 23.099609 74.734375 C 22.846499 74.709785 22.584543 74.782735 22.335938 74.734375 C 22.001242 74.669278 21.711635 74.479341 21.380859 74.400391 C 20.014975 74.074365 18.558527 73.931884 17.177734 73.730469 C 16.557691 73.640023 16.651298 73.486934 16.03125 73.396484 C 15.254091 73.283122 14.338276 73.396484 13.548828 73.396484 C 13.162476 73.396484 12.57407 73.317024 12.210938 73.396484 C 12.123584 73.415597 12.106904 73.539553 12.021484 73.564453 C 11.900687 73.599693 11.759484 73.529213 11.638672 73.564453 C 11.451329 73.61911 10.987047 74.085324 10.875 74.232422 C 10.41902 74.831039 9.8286631 78.671898 10.111328 79.414062 C 10.21656 79.690372 10.890672 80.8296 11.066406 81.085938 C 11.45482 81.652512 12.027224 81.659231 12.402344 81.921875 C 12.581593 82.04738 12.635765 82.271284 12.785156 82.423828 C 13.019538 82.663158 13.32384 82.845656 13.548828 83.091797 C 13.835633 83.405568 14.025691 83.781936 14.3125 84.095703 C 15.595881 85.499744 17.329685 86.644153 18.896484 87.773438 C 20.276454 88.768067 20.383736 89.092523 21.953125 89.779297 C 25.285867 91.237722 29.115161 91.822699 32.648438 92.789062 C 36.692141 93.895029 40.767271 94.872856 44.873047 95.796875 C 46.084505 96.069518 47.275377 96.418109 48.501953 96.632812 C 50.583372 96.997142 52.888855 97.072197 54.996094 96.966797 C 56.084132 96.912387 57.15691 96.698443 58.244141 96.632812 C 60.335216 96.506602 62.452059 96.711484 64.546875 96.632812 L 63.019531 91.451172 C 63.019531 91.906826 63.21009 92.706089 63.019531 93.123047 C 62.53574 94.181574 59.19692 92.925574 58.625 92.789062 C 56.805358 92.354724 54.901463 92.08453 53.085938 91.617188 C 52.564065 91.482851 52.084201 91.239859 51.558594 91.117188 C 50.938176 90.97239 49.01982 90.873843 48.501953 90.783203 C 47.652801 90.634564 46.859648 90.297102 46.019531 90.113281 C 44.600692 89.802837 43.212525 89.742829 41.816406 89.277344 C 39.799131 88.604756 37.849336 87.579132 35.896484 86.769531 C 35.329793 86.534596 34.695249 86.411467 34.177734 86.101562 C 33.470812 85.678238 32.925603 85.077584 32.267578 84.597656 C 30.779864 83.512602 29.062195 82.737349 27.492188 81.755859 C 27.160453 81.548473 26.719425 81.405068 26.537109 81.085938 C 26.48004 80.986033 26.662441 80.751953 26.345703 80.751953 C 26.11723 80.751953 26.500043 80.919922 26.728516 80.919922 L 29.019531 80.919922 C 31.274929 80.919922 33.958248 81.216777 36.087891 80.417969 C 36.349599 80.319806 36.584959 80.171484 36.851562 80.083984 C 37.097358 80.003315 37.390138 80.034219 37.615234 79.916016 C 37.737307 79.851911 37.727671 79.685702 37.806641 79.582031 C 38.061677 79.247218 38.470256 79.015954 38.570312 78.578125 C 38.817569 77.496147 38.727634 76.321781 38.953125 75.236328 C 39.03604 74.837207 39.257784 74.466552 39.333984 74.066406 C 39.386314 73.791582 39.302294 73.5077 39.333984 73.230469 C 39.479213 71.959481 39.622316 70.814499 39.333984 69.552734 C 39.271544 69.279532 39.396404 68.99 39.333984 68.716797 C 39.289912 68.523945 38.131487 66.325773 37.998047 66.208984 C 37.835723 66.066917 37.570788 66.029342 37.423828 65.875 C 37.241549 65.68356 37.225248 65.396518 37.042969 65.205078 C 36.614216 64.754783 35.751019 64.485451 35.322266 64.035156 C 35.139989 63.843716 35.087895 63.580872 34.941406 63.367188 C 34.772339 63.120579 33.383217 62.214123 33.03125 62.029297 C 32.429425 61.713262 31.652681 61.658609 31.121094 61.193359 C 30.958775 61.051291 30.900604 60.833475 30.738281 60.691406 C 30.356747 60.357486 29.646616 60.309417 29.210938 60.023438 C 27.611968 58.973863 25.683732 56.522591 24.818359 55.007812 C 24.266437 54.041716 23.446828 52.520598 24.626953 51.832031 C 27.428543 50.197384 30.75607 50.494141 33.986328 50.494141 C 38.16528 50.494141 42.422005 50.708813 46.591797 50.494141 C 47.104215 50.467759 47.608789 50.356155 48.121094 50.328125 C 49.695876 50.24198 50.979979 50.2097 52.513672 49.826172 C 53.992324 49.456421 55.4557 49.079432 56.90625 48.65625 C 57.155286 48.583595 57.441999 48.602269 57.669922 48.488281 C 57.902591 48.371921 59.073723 47.376039 59.007812 47.318359 C 58.705472 47.053757 57.039943 46.843394 56.525391 46.650391 C 54.67873 45.957719 52.786186 45.506146 50.794922 45.3125 C 49.85719 45.22131 48.861646 45.437993 47.929688 45.3125 C 47.410775 45.24263 46.922084 45.043506 46.402344 44.978516 C 44.665236 44.761275 42.79809 45.028771 41.052734 44.810547 C 38.093972 44.440616 40.95898 44.462984 37.998047 44.310547 C 36.612065 44.239207 35.185064 44.310547 33.794922 44.310547 z "
       d="m 33.794922,44.310547 c -2.752044,0 -5.477805,-0.01812 -8.212891,0.166015 -0.634802,0.04276 -1.276641,-0.05544 -1.910156,0 -0.385354,0.03372 -0.760552,0.139879 -1.146484,0.167969 -0.380687,0.02778 -0.768688,-0.05981 -1.144532,0 -0.337333,0.05368 -0.626677,0.247755 -0.955078,0.333985 -1.6997,0.446286 -0.243779,-0.01669 -1.720703,0.167968 -0.838712,0.104873 -1.674894,0.491284 -2.482422,0.667969 -0.123533,0.02703 -0.260065,-0.03521 -0.380859,0 -0.378741,0.110498 -0.59665,0.679087 -0.955078,0.835938 -0.180078,0.0788 -0.413153,0.0603 -0.574219,0.166015 -0.113895,0.07476 -0.118166,0.229098 -0.191406,0.335938 -1.136805,1.658243 0.492109,-0.771277 -0.955078,1.001953 -0.330989,0.405565 -0.393074,0.959476 -0.763672,1.337891 -0.20718,0.211531 -0.556499,0.290408 -0.763672,0.501953 -0.619126,0.632179 -2.4731294,4.028242 -1.9101564,5.013671 0.8840174,1.547416 2.5717924,2.700033 4.0117184,3.845704 0.399745,0.318054 0.724633,0.706583 1.146485,1.001953 1.387576,0.971534 2.890171,1.604876 4.201172,2.675781 0.526587,0.430154 0.988974,0.919056 1.527343,1.337891 2.447359,1.90396 1.235124,0.695554 3.248047,2.339843 1.972044,1.610888 3.705929,3.453851 5.539063,5.181641 1.238008,1.166866 2.681932,2.289348 4.201172,3.175781 1.528018,0.891563 -0.699131,-0.612499 0.574218,0.501953 -0.07958,-0.01393 -0.127734,0 -0.191406,0 h -1.527344 -4.011718 c -0.866317,0 -1.813381,0.08368 -2.673828,0 -0.897758,-0.0873 -1.776072,-0.246684 -2.673829,-0.333984 -0.25311,-0.02459 -0.515066,0.04836 -0.763671,0 -0.334696,-0.0651 -0.624303,-0.255034 -0.955079,-0.333984 -1.365884,-0.326026 -2.822332,-0.468507 -4.203125,-0.669922 -0.620043,-0.09045 -0.526436,-0.243535 -1.146484,-0.333985 -0.777159,-0.113362 -1.692974,0 -2.482422,0 -0.386352,0 -0.974758,-0.07946 -1.33789,0 -0.08735,0.01911 -0.104034,0.143069 -0.189454,0.167969 -0.120797,0.03524 -0.262,-0.03524 -0.382812,0 -0.187343,0.05466 -0.651625,0.520871 -0.763672,0.667969 -0.45598,0.598617 -1.0463369,4.439476 -0.763672,5.18164 0.105232,0.27631 0.779344,1.415538 0.955078,1.671876 0.388414,0.566574 0.960818,0.573293 1.335938,0.835937 0.179249,0.125505 0.233421,0.349409 0.382812,0.501953 0.234382,0.23933 0.538684,0.421828 0.763672,0.667969 0.286805,0.313771 0.476863,0.690139 0.763672,1.003906 1.283381,1.404041 3.017185,2.54845 4.583984,3.677735 1.37997,0.994629 1.487252,1.319085 3.056641,2.005859 3.332742,1.458425 7.162036,2.043402 10.695313,3.009765 4.043703,1.105967 8.118833,2.083794 12.224609,3.007813 1.211458,0.272643 2.40233,0.621234 3.628906,0.835937 2.081419,0.36433 4.386902,0.439385 6.494141,0.333985 1.088038,-0.05441 2.160816,-0.268354 3.248047,-0.333985 2.091075,-0.12621 4.207918,0.07867 6.302734,0 l -1.527344,-5.18164 c 0,0.455654 0.190559,1.254917 0,1.671875 C 62.53574,94.181574 59.19692,92.925574 58.625,92.789062 56.805358,92.354724 54.901463,92.08453 53.085938,91.617188 c -0.521873,-0.134337 -1.001737,-0.377329 -1.527344,-0.5 -0.620418,-0.144798 -2.538774,-0.243345 -3.056641,-0.333985 -0.849152,-0.148639 -1.642305,-0.486101 -2.482422,-0.669922 -1.418839,-0.310444 -2.807006,-0.370452 -4.203125,-0.835937 -2.017275,-0.672588 -3.96707,-1.698212 -5.919922,-2.507813 -0.566691,-0.234935 -1.201235,-0.358064 -1.71875,-0.667969 -0.706922,-0.423324 -1.252131,-1.023978 -1.910156,-1.503906 -1.487714,-1.085054 -3.205383,-1.860307 -4.77539,-2.841797 -0.331735,-0.207386 -0.772763,-0.350791 -0.955079,-0.669921 -0.05707,-0.0999 0.125332,-0.333985 -0.191406,-0.333985 -0.228473,0 0.15434,0.167969 0.382813,0.167969 h 2.291015 c 2.255398,0 4.938717,0.296855 7.06836,-0.501953 0.261708,-0.09816 0.497068,-0.246485 0.763671,-0.333985 0.245796,-0.08067 0.538576,-0.04977 0.763672,-0.167968 0.122073,-0.0641 0.112437,-0.230314 0.191407,-0.333985 0.255036,-0.334813 0.663615,-0.566077 0.763671,-1.003906 0.247257,-1.081978 0.157322,-2.256344 0.382813,-3.341797 0.08291,-0.399121 0.304659,-0.769776 0.380859,-1.169922 0.05233,-0.274824 -0.03169,-0.558706 0,-0.835937 0.145229,-1.270988 0.288332,-2.41597 0,-3.677735 -0.06244,-0.273202 0.06242,-0.562734 0,-0.835937 -0.04407,-0.192852 -1.202497,-2.391024 -1.335937,-2.507813 -0.162324,-0.142067 -0.427259,-0.179642 -0.574219,-0.333984 -0.182279,-0.19144 -0.19858,-0.478482 -0.380859,-0.669922 -0.428753,-0.450295 -1.29195,-0.719627 -1.720703,-1.169922 -0.182277,-0.19144 -0.234371,-0.454284 -0.38086,-0.667968 -0.169067,-0.246609 -1.558189,-1.153065 -1.910156,-1.337891 -0.601825,-0.316035 -1.378569,-0.370688 -1.910156,-0.835938 -0.162319,-0.142068 -0.22049,-0.359884 -0.382813,-0.501953 -0.381534,-0.33392 -1.091665,-0.381989 -1.527343,-0.667968 -1.59897,-1.049575 -3.527206,-3.500847 -4.392579,-5.015626 -0.551922,-0.966096 -1.371531,-2.487214 -0.191406,-3.175781 2.80159,-1.634647 6.129117,-1.33789 9.359375,-1.33789 4.178952,0 8.435677,0.214672 12.605469,0 0.512418,-0.02638 1.016992,-0.137986 1.529297,-0.166016 1.574782,-0.08615 2.858885,-0.118425 4.392578,-0.501953 1.478652,-0.369751 2.942028,-0.74674 4.392578,-1.169922 0.249036,-0.07265 0.535749,-0.05398 0.763672,-0.167969 0.232669,-0.11636 1.403801,-1.112242 1.33789,-1.169922 -0.30234,-0.264602 -1.967869,-0.474965 -2.482421,-0.667968 -1.846661,-0.692672 -3.739205,-1.144245 -5.730469,-1.337891 -0.937732,-0.09119 -1.933276,0.125493 -2.865234,0 -0.518913,-0.06987 -1.007604,-0.268994 -1.527344,-0.333984 -1.737108,-0.217241 -3.604254,0.05025 -5.34961,-0.167969 -2.958762,-0.369931 -0.09375,-0.347563 -3.054687,-0.5 -1.385982,-0.07134 -2.812983,0 -4.203125,0 z"
       transform="matrix(-0.47179866,0,0,-0.95209903,119.86435,131.18543)" />
    <path
       id="path2"
       style="fill:#ffffff;stroke:#612e74;stroke-width:0.360193;stroke-opacity:1"
       sodipodi:type="inkscape:offset"
       inkscape:radius="0"
       inkscape:original="M 33.794922 44.310547 C 31.042878 44.310547 28.317117 44.292426 25.582031 44.476562 C 24.947229 44.519323 24.30539 44.421124 23.671875 44.476562 C 23.286521 44.510286 22.911323 44.616441 22.525391 44.644531 C 22.144704 44.672311 21.756703 44.584721 21.380859 44.644531 C 21.043526 44.698207 20.754182 44.892286 20.425781 44.978516 C 18.726081 45.424802 20.182002 44.961821 18.705078 45.146484 C 17.866366 45.251357 17.030184 45.637768 16.222656 45.814453 C 16.099123 45.841483 15.962591 45.779243 15.841797 45.814453 C 15.463056 45.924951 15.245147 46.49354 14.886719 46.650391 C 14.706641 46.729195 14.473566 46.71069 14.3125 46.816406 C 14.198605 46.89117 14.194334 47.045504 14.121094 47.152344 C 12.984289 48.810587 14.613203 46.381067 13.166016 48.154297 C 12.835027 48.559862 12.772942 49.113773 12.402344 49.492188 C 12.195164 49.703719 11.845845 49.782596 11.638672 49.994141 C 11.019546 50.62632 9.1655426 54.022383 9.7285156 55.007812 C 10.612533 56.555228 12.300308 57.707845 13.740234 58.853516 C 14.139979 59.17157 14.464867 59.560099 14.886719 59.855469 C 16.274295 60.827003 17.77689 61.460345 19.087891 62.53125 C 19.614478 62.961404 20.076865 63.450306 20.615234 63.869141 C 23.062593 65.773101 21.850358 64.564695 23.863281 66.208984 C 25.835325 67.819872 27.56921 69.662835 29.402344 71.390625 C 30.640352 72.557491 32.084276 73.679973 33.603516 74.566406 C 35.131534 75.457969 32.904385 73.953907 34.177734 75.068359 C 34.098151 75.054429 34.05 75.068359 33.986328 75.068359 L 32.458984 75.068359 L 28.447266 75.068359 C 27.580949 75.068359 26.633885 75.152039 25.773438 75.068359 C 24.87568 74.981057 23.997366 74.821675 23.099609 74.734375 C 22.846499 74.709785 22.584543 74.782735 22.335938 74.734375 C 22.001242 74.669278 21.711635 74.479341 21.380859 74.400391 C 20.014975 74.074365 18.558527 73.931884 17.177734 73.730469 C 16.557691 73.640023 16.651298 73.486934 16.03125 73.396484 C 15.254091 73.283122 14.338276 73.396484 13.548828 73.396484 C 13.162476 73.396484 12.57407 73.317024 12.210938 73.396484 C 12.123584 73.415597 12.106904 73.539553 12.021484 73.564453 C 11.900687 73.599693 11.759484 73.529213 11.638672 73.564453 C 11.451329 73.61911 10.987047 74.085324 10.875 74.232422 C 10.41902 74.831039 9.8286631 78.671898 10.111328 79.414062 C 10.21656 79.690372 10.890672 80.8296 11.066406 81.085938 C 11.45482 81.652512 12.027224 81.659231 12.402344 81.921875 C 12.581593 82.04738 12.635765 82.271284 12.785156 82.423828 C 13.019538 82.663158 13.32384 82.845656 13.548828 83.091797 C 13.835633 83.405568 14.025691 83.781936 14.3125 84.095703 C 15.595881 85.499744 17.329685 86.644153 18.896484 87.773438 C 20.276454 88.768067 20.383736 89.092523 21.953125 89.779297 C 25.285867 91.237722 29.115161 91.822699 32.648438 92.789062 C 36.692141 93.895029 40.767271 94.872856 44.873047 95.796875 C 46.084505 96.069518 47.275377 96.418109 48.501953 96.632812 C 50.583372 96.997142 52.888855 97.072197 54.996094 96.966797 C 56.084132 96.912387 57.15691 96.698443 58.244141 96.632812 C 60.335216 96.506602 62.452059 96.711484 64.546875 96.632812 L 63.019531 91.451172 C 63.019531 91.906826 63.21009 92.706089 63.019531 93.123047 C 62.53574 94.181574 59.19692 92.925574 58.625 92.789062 C 56.805358 92.354724 54.901463 92.08453 53.085938 91.617188 C 52.564065 91.482851 52.084201 91.239859 51.558594 91.117188 C 50.938176 90.97239 49.01982 90.873843 48.501953 90.783203 C 47.652801 90.634564 46.859648 90.297102 46.019531 90.113281 C 44.600692 89.802837 43.212525 89.742829 41.816406 89.277344 C 39.799131 88.604756 37.849336 87.579132 35.896484 86.769531 C 35.329793 86.534596 34.695249 86.411467 34.177734 86.101562 C 33.470812 85.678238 32.925603 85.077584 32.267578 84.597656 C 30.779864 83.512602 29.062195 82.737349 27.492188 81.755859 C 27.160453 81.548473 26.719425 81.405068 26.537109 81.085938 C 26.48004 80.986033 26.662441 80.751953 26.345703 80.751953 C 26.11723 80.751953 26.500043 80.919922 26.728516 80.919922 L 29.019531 80.919922 C 31.274929 80.919922 33.958248 81.216777 36.087891 80.417969 C 36.349599 80.319806 36.584959 80.171484 36.851562 80.083984 C 37.097358 80.003315 37.390138 80.034219 37.615234 79.916016 C 37.737307 79.851911 37.727671 79.685702 37.806641 79.582031 C 38.061677 79.247218 38.470256 79.015954 38.570312 78.578125 C 38.817569 77.496147 38.727634 76.321781 38.953125 75.236328 C 39.03604 74.837207 39.257784 74.466552 39.333984 74.066406 C 39.386314 73.791582 39.302294 73.5077 39.333984 73.230469 C 39.479213 71.959481 39.622316 70.814499 39.333984 69.552734 C 39.271544 69.279532 39.396404 68.99 39.333984 68.716797 C 39.289912 68.523945 38.131487 66.325773 37.998047 66.208984 C 37.835723 66.066917 37.570788 66.029342 37.423828 65.875 C 37.241549 65.68356 37.225248 65.396518 37.042969 65.205078 C 36.614216 64.754783 35.751019 64.485451 35.322266 64.035156 C 35.139989 63.843716 35.087895 63.580872 34.941406 63.367188 C 34.772339 63.120579 33.383217 62.214123 33.03125 62.029297 C 32.429425 61.713262 31.652681 61.658609 31.121094 61.193359 C 30.958775 61.051291 30.900604 60.833475 30.738281 60.691406 C 30.356747 60.357486 29.646616 60.309417 29.210938 60.023438 C 27.611968 58.973863 25.683732 56.522591 24.818359 55.007812 C 24.266437 54.041716 23.446828 52.520598 24.626953 51.832031 C 27.428543 50.197384 30.75607 50.494141 33.986328 50.494141 C 38.16528 50.494141 42.422005 50.708813 46.591797 50.494141 C 47.104215 50.467759 47.608789 50.356155 48.121094 50.328125 C 49.695876 50.24198 50.979979 50.2097 52.513672 49.826172 C 53.992324 49.456421 55.4557 49.079432 56.90625 48.65625 C 57.155286 48.583595 57.441999 48.602269 57.669922 48.488281 C 57.902591 48.371921 59.073723 47.376039 59.007812 47.318359 C 58.705472 47.053757 57.039943 46.843394 56.525391 46.650391 C 54.67873 45.957719 52.786186 45.506146 50.794922 45.3125 C 49.85719 45.22131 48.861646 45.437993 47.929688 45.3125 C 47.410775 45.24263 46.922084 45.043506 46.402344 44.978516 C 44.665236 44.761275 42.79809 45.028771 41.052734 44.810547 C 38.093972 44.440616 40.95898 44.462984 37.998047 44.310547 C 36.612065 44.239207 35.185064 44.310547 33.794922 44.310547 z "
       d="m 33.794922,44.310547 c -2.752044,0 -5.477805,-0.01812 -8.212891,0.166015 -0.634802,0.04276 -1.276641,-0.05544 -1.910156,0 -0.385354,0.03372 -0.760552,0.139879 -1.146484,0.167969 -0.380687,0.02778 -0.768688,-0.05981 -1.144532,0 -0.337333,0.05368 -0.626677,0.247755 -0.955078,0.333985 -1.6997,0.446286 -0.243779,-0.01669 -1.720703,0.167968 -0.838712,0.104873 -1.674894,0.491284 -2.482422,0.667969 -0.123533,0.02703 -0.260065,-0.03521 -0.380859,0 -0.378741,0.110498 -0.59665,0.679087 -0.955078,0.835938 -0.180078,0.0788 -0.413153,0.0603 -0.574219,0.166015 -0.113895,0.07476 -0.118166,0.229098 -0.191406,0.335938 -1.136805,1.658243 0.492109,-0.771277 -0.955078,1.001953 -0.330989,0.405565 -0.393074,0.959476 -0.763672,1.337891 -0.20718,0.211531 -0.556499,0.290408 -0.763672,0.501953 -0.619126,0.632179 -2.4731294,4.028242 -1.9101564,5.013671 0.8840174,1.547416 2.5717924,2.700033 4.0117184,3.845704 0.399745,0.318054 0.724633,0.706583 1.146485,1.001953 1.387576,0.971534 2.890171,1.604876 4.201172,2.675781 0.526587,0.430154 0.988974,0.919056 1.527343,1.337891 2.447359,1.90396 1.235124,0.695554 3.248047,2.339843 1.972044,1.610888 3.705929,3.453851 5.539063,5.181641 1.238008,1.166866 2.681932,2.289348 4.201172,3.175781 1.528018,0.891563 -0.699131,-0.612499 0.574218,0.501953 -0.07958,-0.01393 -0.127734,0 -0.191406,0 h -1.527344 -4.011718 c -0.866317,0 -1.813381,0.08368 -2.673828,0 -0.897758,-0.0873 -1.776072,-0.246684 -2.673829,-0.333984 -0.25311,-0.02459 -0.515066,0.04836 -0.763671,0 -0.334696,-0.0651 -0.624303,-0.255034 -0.955079,-0.333984 -1.365884,-0.326026 -2.822332,-0.468507 -4.203125,-0.669922 -0.620043,-0.09045 -0.526436,-0.243535 -1.146484,-0.333985 -0.777159,-0.113362 -1.692974,0 -2.482422,0 -0.386352,0 -0.974758,-0.07946 -1.33789,0 -0.08735,0.01911 -0.104034,0.143069 -0.189454,0.167969 -0.120797,0.03524 -0.262,-0.03524 -0.382812,0 -0.187343,0.05466 -0.651625,0.520871 -0.763672,0.667969 -0.45598,0.598617 -1.0463369,4.439476 -0.763672,5.18164 0.105232,0.27631 0.779344,1.415538 0.955078,1.671876 0.388414,0.566574 0.960818,0.573293 1.335938,0.835937 0.179249,0.125505 0.233421,0.349409 0.382812,0.501953 0.234382,0.23933 0.538684,0.421828 0.763672,0.667969 0.286805,0.313771 0.476863,0.690139 0.763672,1.003906 1.283381,1.404041 3.017185,2.54845 4.583984,3.677735 1.37997,0.994629 1.487252,1.319085 3.056641,2.005859 3.332742,1.458425 7.162036,2.043402 10.695313,3.009765 4.043703,1.105967 8.118833,2.083794 12.224609,3.007813 1.211458,0.272643 2.40233,0.621234 3.628906,0.835937 2.081419,0.36433 4.386902,0.439385 6.494141,0.333985 1.088038,-0.05441 2.160816,-0.268354 3.248047,-0.333985 2.091075,-0.12621 4.207918,0.07867 6.302734,0 l -1.527344,-5.18164 c 0,0.455654 0.190559,1.254917 0,1.671875 C 62.53574,94.181574 59.19692,92.925574 58.625,92.789062 56.805358,92.354724 54.901463,92.08453 53.085938,91.617188 c -0.521873,-0.134337 -1.001737,-0.377329 -1.527344,-0.5 -0.620418,-0.144798 -2.538774,-0.243345 -3.056641,-0.333985 -0.849152,-0.148639 -1.642305,-0.486101 -2.482422,-0.669922 -1.418839,-0.310444 -2.807006,-0.370452 -4.203125,-0.835937 -2.017275,-0.672588 -3.96707,-1.698212 -5.919922,-2.507813 -0.566691,-0.234935 -1.201235,-0.358064 -1.71875,-0.667969 -0.706922,-0.423324 -1.252131,-1.023978 -1.910156,-1.503906 -1.487714,-1.085054 -3.205383,-1.860307 -4.77539,-2.841797 -0.331735,-0.207386 -0.772763,-0.350791 -0.955079,-0.669921 -0.05707,-0.0999 0.125332,-0.333985 -0.191406,-0.333985 -0.228473,0 0.15434,0.167969 0.382813,0.167969 h 2.291015 c 2.255398,0 4.938717,0.296855 7.06836,-0.501953 0.261708,-0.09816 0.497068,-0.246485 0.763671,-0.333985 0.245796,-0.08067 0.538576,-0.04977 0.763672,-0.167968 0.122073,-0.0641 0.112437,-0.230314 0.191407,-0.333985 0.255036,-0.334813 0.663615,-0.566077 0.763671,-1.003906 0.247257,-1.081978 0.157322,-2.256344 0.382813,-3.341797 0.08291,-0.399121 0.304659,-0.769776 0.380859,-1.169922 0.05233,-0.274824 -0.03169,-0.558706 0,-0.835937 0.145229,-1.270988 0.288332,-2.41597 0,-3.677735 -0.06244,-0.273202 0.06242,-0.562734 0,-0.835937 -0.04407,-0.192852 -1.202497,-2.391024 -1.335937,-2.507813 -0.162324,-0.142067 -0.427259,-0.179642 -0.574219,-0.333984 -0.182279,-0.19144 -0.19858,-0.478482 -0.380859,-0.669922 -0.428753,-0.450295 -1.29195,-0.719627 -1.720703,-1.169922 -0.182277,-0.19144 -0.234371,-0.454284 -0.38086,-0.667968 -0.169067,-0.246609 -1.558189,-1.153065 -1.910156,-1.337891 -0.601825,-0.316035 -1.378569,-0.370688 -1.910156,-0.835938 -0.162319,-0.142068 -0.22049,-0.359884 -0.382813,-0.501953 -0.381534,-0.33392 -1.091665,-0.381989 -1.527343,-0.667968 -1.59897,-1.049575 -3.527206,-3.500847 -4.392579,-5.015626 -0.551922,-0.966096 -1.371531,-2.487214 -0.191406,-3.175781 2.80159,-1.634647 6.129117,-1.33789 9.359375,-1.33789 4.178952,0 8.435677,0.214672 12.605469,0 0.512418,-0.02638 1.016992,-0.137986 1.529297,-0.166016 1.574782,-0.08615 2.858885,-0.118425 4.392578,-0.501953 1.478652,-0.369751 2.942028,-0.74674 4.392578,-1.169922 0.249036,-0.07265 0.535749,-0.05398 0.763672,-0.167969 0.232669,-0.11636 1.403801,-1.112242 1.33789,-1.169922 -0.30234,-0.264602 -1.967869,-0.474965 -2.482421,-0.667968 -1.846661,-0.692672 -3.739205,-1.144245 -5.730469,-1.337891 -0.937732,-0.09119 -1.933276,0.125493 -2.865234,0 -0.518913,-0.06987 -1.007604,-0.268994 -1.527344,-0.333984 -1.737108,-0.217241 -3.604254,0.05025 -5.34961,-0.167969 -2.958762,-0.369931 -0.09375,-0.347563 -3.054687,-0.5 -1.385982,-0.07134 -2.812983,0 -4.203125,0 z"
       transform="matrix(0,0.47917153,-0.93744937,0,136.37524,15.854125)" />
    <path
       id="path2-3"
       style="fill:#ffffff;stroke:#612e74;stroke-width:0.360193;stroke-opacity:1"
       sodipodi:type="inkscape:offset"
       inkscape:radius="0"
       inkscape:original="M 33.794922 44.310547 C 31.042878 44.310547 28.317117 44.292426 25.582031 44.476562 C 24.947229 44.519323 24.30539 44.421124 23.671875 44.476562 C 23.286521 44.510286 22.911323 44.616441 22.525391 44.644531 C 22.144704 44.672311 21.756703 44.584721 21.380859 44.644531 C 21.043526 44.698207 20.754182 44.892286 20.425781 44.978516 C 18.726081 45.424802 20.182002 44.961821 18.705078 45.146484 C 17.866366 45.251357 17.030184 45.637768 16.222656 45.814453 C 16.099123 45.841483 15.962591 45.779243 15.841797 45.814453 C 15.463056 45.924951 15.245147 46.49354 14.886719 46.650391 C 14.706641 46.729195 14.473566 46.71069 14.3125 46.816406 C 14.198605 46.89117 14.194334 47.045504 14.121094 47.152344 C 12.984289 48.810587 14.613203 46.381067 13.166016 48.154297 C 12.835027 48.559862 12.772942 49.113773 12.402344 49.492188 C 12.195164 49.703719 11.845845 49.782596 11.638672 49.994141 C 11.019546 50.62632 9.1655426 54.022383 9.7285156 55.007812 C 10.612533 56.555228 12.300308 57.707845 13.740234 58.853516 C 14.139979 59.17157 14.464867 59.560099 14.886719 59.855469 C 16.274295 60.827003 17.77689 61.460345 19.087891 62.53125 C 19.614478 62.961404 20.076865 63.450306 20.615234 63.869141 C 23.062593 65.773101 21.850358 64.564695 23.863281 66.208984 C 25.835325 67.819872 27.56921 69.662835 29.402344 71.390625 C 30.640352 72.557491 32.084276 73.679973 33.603516 74.566406 C 35.131534 75.457969 32.904385 73.953907 34.177734 75.068359 C 34.098151 75.054429 34.05 75.068359 33.986328 75.068359 L 32.458984 75.068359 L 28.447266 75.068359 C 27.580949 75.068359 26.633885 75.152039 25.773438 75.068359 C 24.87568 74.981057 23.997366 74.821675 23.099609 74.734375 C 22.846499 74.709785 22.584543 74.782735 22.335938 74.734375 C 22.001242 74.669278 21.711635 74.479341 21.380859 74.400391 C 20.014975 74.074365 18.558527 73.931884 17.177734 73.730469 C 16.557691 73.640023 16.651298 73.486934 16.03125 73.396484 C 15.254091 73.283122 14.338276 73.396484 13.548828 73.396484 C 13.162476 73.396484 12.57407 73.317024 12.210938 73.396484 C 12.123584 73.415597 12.106904 73.539553 12.021484 73.564453 C 11.900687 73.599693 11.759484 73.529213 11.638672 73.564453 C 11.451329 73.61911 10.987047 74.085324 10.875 74.232422 C 10.41902 74.831039 9.8286631 78.671898 10.111328 79.414062 C 10.21656 79.690372 10.890672 80.8296 11.066406 81.085938 C 11.45482 81.652512 12.027224 81.659231 12.402344 81.921875 C 12.581593 82.04738 12.635765 82.271284 12.785156 82.423828 C 13.019538 82.663158 13.32384 82.845656 13.548828 83.091797 C 13.835633 83.405568 14.025691 83.781936 14.3125 84.095703 C 15.595881 85.499744 17.329685 86.644153 18.896484 87.773438 C 20.276454 88.768067 20.383736 89.092523 21.953125 89.779297 C 25.285867 91.237722 29.115161 91.822699 32.648438 92.789062 C 36.692141 93.895029 40.767271 94.872856 44.873047 95.796875 C 46.084505 96.069518 47.275377 96.418109 48.501953 96.632812 C 50.583372 96.997142 52.888855 97.072197 54.996094 96.966797 C 56.084132 96.912387 57.15691 96.698443 58.244141 96.632812 C 60.335216 96.506602 62.452059 96.711484 64.546875 96.632812 L 63.019531 91.451172 C 63.019531 91.906826 63.21009 92.706089 63.019531 93.123047 C 62.53574 94.181574 59.19692 92.925574 58.625 92.789062 C 56.805358 92.354724 54.901463 92.08453 53.085938 91.617188 C 52.564065 91.482851 52.084201 91.239859 51.558594 91.117188 C 50.938176 90.97239 49.01982 90.873843 48.501953 90.783203 C 47.652801 90.634564 46.859648 90.297102 46.019531 90.113281 C 44.600692 89.802837 43.212525 89.742829 41.816406 89.277344 C 39.799131 88.604756 37.849336 87.579132 35.896484 86.769531 C 35.329793 86.534596 34.695249 86.411467 34.177734 86.101562 C 33.470812 85.678238 32.925603 85.077584 32.267578 84.597656 C 30.779864 83.512602 29.062195 82.737349 27.492188 81.755859 C 27.160453 81.548473 26.719425 81.405068 26.537109 81.085938 C 26.48004 80.986033 26.662441 80.751953 26.345703 80.751953 C 26.11723 80.751953 26.500043 80.919922 26.728516 80.919922 L 29.019531 80.919922 C 31.274929 80.919922 33.958248 81.216777 36.087891 80.417969 C 36.349599 80.319806 36.584959 80.171484 36.851562 80.083984 C 37.097358 80.003315 37.390138 80.034219 37.615234 79.916016 C 37.737307 79.851911 37.727671 79.685702 37.806641 79.582031 C 38.061677 79.247218 38.470256 79.015954 38.570312 78.578125 C 38.817569 77.496147 38.727634 76.321781 38.953125 75.236328 C 39.03604 74.837207 39.257784 74.466552 39.333984 74.066406 C 39.386314 73.791582 39.302294 73.5077 39.333984 73.230469 C 39.479213 71.959481 39.622316 70.814499 39.333984 69.552734 C 39.271544 69.279532 39.396404 68.99 39.333984 68.716797 C 39.289912 68.523945 38.131487 66.325773 37.998047 66.208984 C 37.835723 66.066917 37.570788 66.029342 37.423828 65.875 C 37.241549 65.68356 37.225248 65.396518 37.042969 65.205078 C 36.614216 64.754783 35.751019 64.485451 35.322266 64.035156 C 35.139989 63.843716 35.087895 63.580872 34.941406 63.367188 C 34.772339 63.120579 33.383217 62.214123 33.03125 62.029297 C 32.429425 61.713262 31.652681 61.658609 31.121094 61.193359 C 30.958775 61.051291 30.900604 60.833475 30.738281 60.691406 C 30.356747 60.357486 29.646616 60.309417 29.210938 60.023438 C 27.611968 58.973863 25.683732 56.522591 24.818359 55.007812 C 24.266437 54.041716 23.446828 52.520598 24.626953 51.832031 C 27.428543 50.197384 30.75607 50.494141 33.986328 50.494141 C 38.16528 50.494141 42.422005 50.708813 46.591797 50.494141 C 47.104215 50.467759 47.608789 50.356155 48.121094 50.328125 C 49.695876 50.24198 50.979979 50.2097 52.513672 49.826172 C 53.992324 49.456421 55.4557 49.079432 56.90625 48.65625 C 57.155286 48.583595 57.441999 48.602269 57.669922 48.488281 C 57.902591 48.371921 59.073723 47.376039 59.007812 47.318359 C 58.705472 47.053757 57.039943 46.843394 56.525391 46.650391 C 54.67873 45.957719 52.786186 45.506146 50.794922 45.3125 C 49.85719 45.22131 48.861646 45.437993 47.929688 45.3125 C 47.410775 45.24263 46.922084 45.043506 46.402344 44.978516 C 44.665236 44.761275 42.79809 45.028771 41.052734 44.810547 C 38.093972 44.440616 40.95898 44.462984 37.998047 44.310547 C 36.612065 44.239207 35.185064 44.310547 33.794922 44.310547 z "
       d="m 33.794922,44.310547 c -2.752044,0 -5.477805,-0.01812 -8.212891,0.166015 -0.634802,0.04276 -1.276641,-0.05544 -1.910156,0 -0.385354,0.03372 -0.760552,0.139879 -1.146484,0.167969 -0.380687,0.02778 -0.768688,-0.05981 -1.144532,0 -0.337333,0.05368 -0.626677,0.247755 -0.955078,0.333985 -1.6997,0.446286 -0.243779,-0.01669 -1.720703,0.167968 -0.838712,0.104873 -1.674894,0.491284 -2.482422,0.667969 -0.123533,0.02703 -0.260065,-0.03521 -0.380859,0 -0.378741,0.110498 -0.59665,0.679087 -0.955078,0.835938 -0.180078,0.0788 -0.413153,0.0603 -0.574219,0.166015 -0.113895,0.07476 -0.118166,0.229098 -0.191406,0.335938 -1.136805,1.658243 0.492109,-0.771277 -0.955078,1.001953 -0.330989,0.405565 -0.393074,0.959476 -0.763672,1.337891 -0.20718,0.211531 -0.556499,0.290408 -0.763672,0.501953 -0.619126,0.632179 -2.4731294,4.028242 -1.9101564,5.013671 0.8840174,1.547416 2.5717924,2.700033 4.0117184,3.845704 0.399745,0.318054 0.724633,0.706583 1.146485,1.001953 1.387576,0.971534 2.890171,1.604876 4.201172,2.675781 0.526587,0.430154 0.988974,0.919056 1.527343,1.337891 2.447359,1.90396 1.235124,0.695554 3.248047,2.339843 1.972044,1.610888 3.705929,3.453851 5.539063,5.181641 1.238008,1.166866 2.681932,2.289348 4.201172,3.175781 1.528018,0.891563 -0.699131,-0.612499 0.574218,0.501953 -0.07958,-0.01393 -0.127734,0 -0.191406,0 h -1.527344 -4.011718 c -0.866317,0 -1.813381,0.08368 -2.673828,0 -0.897758,-0.0873 -1.776072,-0.246684 -2.673829,-0.333984 -0.25311,-0.02459 -0.515066,0.04836 -0.763671,0 -0.334696,-0.0651 -0.624303,-0.255034 -0.955079,-0.333984 -1.365884,-0.326026 -2.822332,-0.468507 -4.203125,-0.669922 -0.620043,-0.09045 -0.526436,-0.243535 -1.146484,-0.333985 -0.777159,-0.113362 -1.692974,0 -2.482422,0 -0.386352,0 -0.974758,-0.07946 -1.33789,0 -0.08735,0.01911 -0.104034,0.143069 -0.189454,0.167969 -0.120797,0.03524 -0.262,-0.03524 -0.382812,0 -0.187343,0.05466 -0.651625,0.520871 -0.763672,0.667969 -0.45598,0.598617 -1.0463369,4.439476 -0.763672,5.18164 0.105232,0.27631 0.779344,1.415538 0.955078,1.671876 0.388414,0.566574 0.960818,0.573293 1.335938,0.835937 0.179249,0.125505 0.233421,0.349409 0.382812,0.501953 0.234382,0.23933 0.538684,0.421828 0.763672,0.667969 0.286805,0.313771 0.476863,0.690139 0.763672,1.003906 1.283381,1.404041 3.017185,2.54845 4.583984,3.677735 1.37997,0.994629 1.487252,1.319085 3.056641,2.005859 3.332742,1.458425 7.162036,2.043402 10.695313,3.009765 4.043703,1.105967 8.118833,2.083794 12.224609,3.007813 1.211458,0.272643 2.40233,0.621234 3.628906,0.835937 2.081419,0.36433 4.386902,0.439385 6.494141,0.333985 1.088038,-0.05441 2.160816,-0.268354 3.248047,-0.333985 2.091075,-0.12621 4.207918,0.07867 6.302734,0 l -1.527344,-5.18164 c 0,0.455654 0.190559,1.254917 0,1.671875 C 62.53574,94.181574 59.19692,92.925574 58.625,92.789062 56.805358,92.354724 54.901463,92.08453 53.085938,91.617188 c -0.521873,-0.134337 -1.001737,-0.377329 -1.527344,-0.5 -0.620418,-0.144798 -2.538774,-0.243345 -3.056641,-0.333985 -0.849152,-0.148639 -1.642305,-0.486101 -2.482422,-0.669922 -1.418839,-0.310444 -2.807006,-0.370452 -4.203125,-0.835937 -2.017275,-0.672588 -3.96707,-1.698212 -5.919922,-2.507813 -0.566691,-0.234935 -1.201235,-0.358064 -1.71875,-0.667969 -0.706922,-0.423324 -1.252131,-1.023978 -1.910156,-1.503906 -1.487714,-1.085054 -3.205383,-1.860307 -4.77539,-2.841797 -0.331735,-0.207386 -0.772763,-0.350791 -0.955079,-0.669921 -0.05707,-0.0999 0.125332,-0.333985 -0.191406,-0.333985 -0.228473,0 0.15434,0.167969 0.382813,0.167969 h 2.291015 c 2.255398,0 4.938717,0.296855 7.06836,-0.501953 0.261708,-0.09816 0.497068,-0.246485 0.763671,-0.333985 0.245796,-0.08067 0.538576,-0.04977 0.763672,-0.167968 0.122073,-0.0641 0.112437,-0.230314 0.191407,-0.333985 0.255036,-0.334813 0.663615,-0.566077 0.763671,-1.003906 0.247257,-1.081978 0.157322,-2.256344 0.382813,-3.341797 0.08291,-0.399121 0.304659,-0.769776 0.380859,-1.169922 0.05233,-0.274824 -0.03169,-0.558706 0,-0.835937 0.145229,-1.270988 0.288332,-2.41597 0,-3.677735 -0.06244,-0.273202 0.06242,-0.562734 0,-0.835937 -0.04407,-0.192852 -1.202497,-2.391024 -1.335937,-2.507813 -0.162324,-0.142067 -0.427259,-0.179642 -0.574219,-0.333984 -0.182279,-0.19144 -0.19858,-0.478482 -0.380859,-0.669922 -0.428753,-0.450295 -1.29195,-0.719627 -1.720703,-1.169922 -0.182277,-0.19144 -0.234371,-0.454284 -0.38086,-0.667968 -0.169067,-0.246609 -1.558189,-1.153065 -1.910156,-1.337891 -0.601825,-0.316035 -1.378569,-0.370688 -1.910156,-0.835938 -0.162319,-0.142068 -0.22049,-0.359884 -0.382813,-0.501953 -0.381534,-0.33392 -1.091665,-0.381989 -1.527343,-0.667968 -1.59897,-1.049575 -3.527206,-3.500847 -4.392579,-5.015626 -0.551922,-0.966096 -1.371531,-2.487214 -0.191406,-3.175781 2.80159,-1.634647 6.129117,-1.33789 9.359375,-1.33789 4.178952,0 8.435677,0.214672 12.605469,0 0.512418,-0.02638 1.016992,-0.137986 1.529297,-0.166016 1.574782,-0.08615 2.858885,-0.118425 4.392578,-0.501953 1.478652,-0.369751 2.942028,-0.74674 4.392578,-1.169922 0.249036,-0.07265 0.535749,-0.05398 0.763672,-0.167969 0.232669,-0.11636 1.403801,-1.112242 1.33789,-1.169922 -0.30234,-0.264602 -1.967869,-0.474965 -2.482421,-0.667968 -1.846661,-0.692672 -3.739205,-1.144245 -5.730469,-1.337891 -0.937732,-0.09119 -1.933276,0.125493 -2.865234,0 -0.518913,-0.06987 -1.007604,-0.268994 -1.527344,-0.333984 -1.737108,-0.217241 -3.604254,0.05025 -5.34961,-0.167969 -2.958762,-0.369931 -0.09375,-0.347563 -3.054687,-0.5 -1.385982,-0.07134 -2.812983,0 -4.203125,0 z"
       transform="matrix(0,-0.46654559,-0.88205052,0,136.46217,109.28005)" />
    <path
       style="fill:#ffffff;stroke:#612e74;stroke-width:0.261067;stroke-opacity:1"
       d="m 55.199034,81.314854 c -1.50659,0.05746 -3.029282,-0.09219 -4.533182,0 -0.781936,0.04794 -1.552753,0.204464 -2.33527,0.244207 -1.515524,0.07699 -3.173591,0.02191 -4.670546,-0.244207 -0.882152,-0.156827 -1.738728,-0.411379 -2.610008,-0.610528 -2.952871,-0.674939 -5.883385,-1.390061 -8.791613,-2.197901 -2.54113,-0.70587 -5.295757,-1.132611 -7.692662,-2.197901 -1.128704,-0.501646 -1.205429,-0.738751 -2.197902,-1.465266 -1.126841,-0.824873 -2.37385,-1.660758 -3.296856,-2.686324 -0.206273,-0.229187 -0.343207,-0.503442 -0.549477,-0.732632 -0.161812,-0.179791 -0.380908,-0.313606 -0.549475,-0.488422 -0.107442,-0.111424 -0.145821,-0.274642 -0.274737,-0.366316 -0.269786,-0.191845 -0.682237,-0.19668 -0.961584,-0.610527 -0.126388,-0.187238 -0.611163,-1.01923 -0.686846,-1.221057 -0.203293,-0.542106 0.221534,-3.34802 0.549475,-3.785273 0.08058,-0.107446 0.414738,-0.448497 0.549474,-0.48842 0.08689,-0.02574 0.187861,0.02574 0.274738,0 0.06143,-0.01819 0.07455,-0.108146 0.137372,-0.122107 0.261165,-0.05804 0.683719,0 0.961583,0 0.56777,0 1.226863,-0.0828 1.785795,0 0.445938,0.06607 0.37828,0.178147 0.824214,0.244212 0.993065,0.147121 2.039777,0.250279 3.022119,0.488421 0.237894,0.05767 0.446132,0.196664 0.686845,0.244213 0.178797,0.03532 0.367438,-0.01796 0.549475,0 0.645666,0.06377 1.2775,0.180443 1.923167,0.244212 0.618833,0.06112 1.300109,0 1.923164,0 0.961582,0 1.923165,0 2.884748,0 0.366318,0 0.732634,0 1.09895,0 0.09159,0 0.274739,0.0814 0.274739,0 0,-0.0407 -0.10499,0.02879 -0.137369,0 -0.915792,-0.814039 0.686844,0.284913 -0.412106,-0.366319 -1.092636,-0.647484 -2.131744,-1.467681 -3.022118,-2.320005 -1.318389,-1.262044 -2.565408,-2.608616 -3.983701,-3.78527 -1.447692,-1.201052 -0.575132,-0.318754 -2.335271,-1.709479 -0.387195,-0.305933 -0.720228,-0.662644 -1.098949,-0.976845 -0.942871,-0.78223 -2.024177,-1.244042 -3.022121,-1.953688 -0.303395,-0.215749 -0.536717,-0.500315 -0.824214,-0.732634 -1.035593,-0.836842 -2.248962,-1.678136 -2.884747,-2.808427 -0.40489,-0.719796 0.928413,-3.201397 1.373687,-3.663165 0.148999,-0.15452 0.400477,-0.211808 0.549481,-0.366319 0.266534,-0.276409 0.311428,-0.680611 0.549475,-0.976852 1.040816,-1.295235 -0.130746,0.478613 0.686843,-0.732632 0.05267,-0.07804 0.05546,-0.189605 0.137371,-0.244215 0.115838,-0.07722 0.282592,-0.06454 0.412104,-0.122103 0.257782,-0.11457 0.414457,-0.529817 0.686847,-0.610529 0.08687,-0.02572 0.185892,0.01974 0.274737,0 0.580774,-0.129057 1.182598,-0.411822 1.785799,-0.488426 1.062202,-0.134885 0.0139,0.203877 1.236318,-0.122107 0.236185,-0.06299 0.444237,-0.205 0.686846,-0.244207 0.270307,-0.04369 0.550426,0.02029 0.824216,0 0.277562,-0.02052 0.547067,-0.09747 0.824213,-0.122107 0.455623,-0.0405 0.917139,0.03123 1.373688,0 1.967072,-0.134502 3.927599,-0.122108 5.906867,-0.122108 0.999789,0 2.025318,-0.05211 3.022116,0 2.1295,0.111346 0.06996,0.0961 2.197903,0.366314 1.255259,0.159399 2.597001,-0.03657 3.846328,0.122108 0.373796,0.04747 0.725753,0.193179 1.098954,0.244215 0.670264,0.09167 1.386116,-0.06661 2.060532,0 1.432116,0.141446 2.792952,0.470893 4.121069,0.976847 0.370065,0.140977 1.56835,0.295146 1.785793,0.488421 0.0474,0.04213 -0.794246,0.76975 -0.961581,0.854744 -0.163922,0.08326 -0.370371,0.06903 -0.549477,0.122104 -1.043235,0.309108 -2.096036,0.584659 -3.159482,0.85474 -1.10303,0.280143 -2.026902,0.303399 -3.159484,0.366323 -0.36845,0.02047 -0.730423,0.102837 -1.098954,0.122107 -2.998911,0.156805 -6.060852,0 -9.066352,0 -2.323199,0 -4.716175,-0.21717 -6.731076,0.976839 -0.848745,0.502956 -0.259573,1.614335 0.137369,2.320008 0.622376,1.106451 2.009508,2.896518 3.159486,3.663167 0.31334,0.208891 0.824552,0.244513 1.09895,0.488421 0.116743,0.103773 0.157999,0.262547 0.274738,0.366319 0.382317,0.339836 0.940857,0.379682 1.37369,0.610526 0.253134,0.135004 1.252099,0.796713 1.373692,0.976845 0.105355,0.156084 0.14364,0.348587 0.274734,0.488422 0.308359,0.328913 0.927965,0.525827 1.236324,0.85474 0.131094,0.139835 0.14364,0.348586 0.274735,0.488421 0.105694,0.112737 0.295365,0.140441 0.412109,0.244212 0.09597,0.08531 0.929886,1.690716 0.961583,1.831582 0.04489,0.199558 -0.04491,0.41097 0,0.610528 0.207368,0.921641 0.104448,1.757944 0,2.686322 -0.02279,0.2025 0.03764,0.409786 0,0.610528 -0.0548,0.292282 -0.215108,0.563203 -0.27474,0.854736 -0.162173,0.792856 -0.09691,1.651795 -0.274739,2.442113 -0.07196,0.319807 -0.366053,0.488072 -0.549474,0.732632 -0.0568,0.07572 -0.04957,0.197388 -0.13737,0.244212 -0.161889,0.08634 -0.372698,0.06318 -0.549474,0.122107 -0.19174,0.06391 -0.361256,0.172507 -0.549476,0.244209 -1.531638,0.58348 -3.460571,0.366319 -5.082652,0.366319 -0.549474,0 -1.098953,0 -1.648427,0 -0.164317,0 -0.439056,-0.122106 -0.274739,-0.122106 0.227798,0 0.09633,0.171236 0.13737,0.244211 0.131122,0.233104 0.44826,0.336939 0.686843,0.488422 1.129149,0.716918 2.364262,1.283229 3.434225,2.075794 0.473251,0.350558 0.865271,0.789736 1.373689,1.098948 0.372196,0.226365 0.828758,0.316818 1.236322,0.488424 1.40449,0.591363 2.807612,1.340298 4.258435,1.831582 1.004088,0.340008 2.001691,0.383767 3.022119,0.610527 0.604212,0.13427 1.175086,0.379852 1.785795,0.488424 0.37245,0.06621 1.751701,0.138444 2.197905,0.24421 0.378017,0.0896 0.72362,0.268192 1.098951,0.366316 1.305725,0.341366 2.675005,0.537483 3.98369,0.854741 0.411324,0.09971 2.81156,1.017399 3.159502,0.24421 0.13705,-0.304562 0,-0.888229 0,-1.221056"
       id="path1" />
    <path
       style="fill:#ffffff;stroke:#612e74;stroke-width:0.264583"
       d="m 52.903122,70.537498 12.808125,11.137497 c 0,0 8.353126,1.299377 9.838124,0 1.485,-1.299374 0.7425,7.425 9.466876,-6.868123 8.724373,-14.293124 25.987503,-2.784377 7.981873,-15.778125 -18.005623,-12.993748 -14.293122,-11.88 -19.861874,-13.364998 -5.568749,-1.485001 0.928127,-5.197502 -7.239373,-1.856251 -8.167499,3.341249 -9.28125,-0.185626 -8.909999,4.640625 0.37125,4.826249 2.969998,2.413125 0.37125,6.311249 -2.598751,3.898125 -3.712501,4.083751 -8.353126,5.383125 -4.640625,1.299374 -10.76625,-2.413124 -5.939999,2.227501 4.826248,4.640625 6.496873,5.011875 7.796249,5.754373 1.299374,0.7425 2.041874,2.413127 2.041874,2.413127 z"
       id="path3" />
  </g>
</svg>
