<?xml version="1.0" encoding="UTF-8" standalone="no"?>
<!-- Created with Inkscape (http://www.inkscape.org/) -->

<svg
   width="512"
   height="512"
   viewBox="0 0 135.46666 135.46667"
   version="1.1"
   id="svg1"
   inkscape:export-filename="ins-mandoom.svg"
   inkscape:export-xdpi="96"
   inkscape:export-ydpi="96"
   inkscape:version="1.4.2 (ebf0e940d0, 2025-05-08)"
   sodipodi:docname="2mandoom.svg"
   xmlns:inkscape="http://www.inkscape.org/namespaces/inkscape"
   xmlns:sodipodi="http://sodipodi.sourceforge.net/DTD/sodipodi-0.dtd"
   xmlns="http://www.w3.org/2000/svg"
   xmlns:svg="http://www.w3.org/2000/svg">
  <sodipodi:namedview
     id="namedview1"
     pagecolor="#505050"
     bordercolor="#ffffff"
     borderopacity="1"
     inkscape:showpageshadow="0"
     inkscape:pageopacity="0"
     inkscape:pagecheckerboard="1"
     inkscape:deskcolor="#505050"
     inkscape:document-units="mm"
     inkscape:zoom="1.4253648"
     inkscape:cx="128.0374"
     inkscape:cy="202.75512"
     inkscape:window-width="1920"
     inkscape:window-height="1008"
     inkscape:window-x="0"
     inkscape:window-y="0"
     inkscape:window-maximized="1"
     inkscape:current-layer="layer1" />
  <defs
     id="defs1">
    <rect
       x="90.50315"
       y="403.40551"
       width="342.3685"
       height="77.173228"
       id="rect2" />
    <filter
       inkscape:collect="always"
       style="color-interpolation-filters:sRGB"
       id="filter1"
       x="-0.022184432"
       y="-0.022227845"
       width="1.0443689"
       height="1.0444557">
      <feGaussianBlur
         inkscape:collect="always"
         stdDeviation="1.2423916"
         id="feGaussianBlur1" />
    </filter>
    <rect
       x="90.503151"
       y="403.40552"
       width="342.3685"
       height="77.173225"
       id="rect2-3" />
  </defs>
  <g
     inkscape:label="Слой 1"
     inkscape:groupmode="layer"
     id="layer1">
    <rect
       style="mix-blend-mode:normal;fill:#2c122f;stroke-width:0.264583;filter:url(#filter1)"
       id="rect1"
       width="134.40686"
       height="134.14435"
       x="1.5750804"
       y="0.7875402"
       transform="matrix(0.96446718,0,0,0.9681479,1.4163612,1.9533289)" />
    <path
       style="fill:#ffffff;stroke-width:0.545288;stroke:#612e74;stroke-opacity:1"
       d="m 24.876871,104.49938 c -0.12601,-2.99714 0.202174,-6.026319 0,-9.018107 -0.10513,-1.555547 -0.448387,-3.088976 -0.535551,-4.645678 -0.168818,-3.014915 -0.04806,-6.313396 0.535551,-9.291369 0.343919,-1.754915 0.902147,-3.458947 1.338878,-5.192231 1.480132,-5.874306 3.048378,-11.704135 4.81996,-17.48963 1.547954,-5.055207 2.483793,-10.535135 4.819955,-15.303428 1.100102,-2.24539 1.620071,-2.398023 3.213306,-4.372405 1.808934,-2.241684 3.642016,-4.722426 5.891065,-6.558614 0.502604,-0.410349 1.10404,-0.682759 1.606651,-1.0931 0.394278,-0.321901 0.687732,-0.757759 1.071101,-1.093107 0.24435,-0.21374 0.602286,-0.290082 0.803325,-0.546545 0.420714,-0.536701 0.431316,-1.357212 1.338876,-1.912932 0.41061,-0.251424 2.235155,-1.215816 2.677759,-1.366377 1.188829,-0.404418 7.342152,0.440712 8.301041,1.093101 0.235627,0.160313 0.983547,0.825058 1.071099,1.0931 0.05645,0.172847 -0.05645,0.373719 0,0.546552 0.03989,0.122212 0.237161,0.148294 0.267777,0.273279 0.127279,0.519549 0,1.360152 0,1.912929 0,1.129493 0.181588,2.440662 0,3.552576 -0.144887,0.887128 -0.390672,0.752532 -0.535552,1.639653 -0.322635,1.975559 -0.54886,4.057838 -1.071101,6.012065 -0.126466,0.473255 -0.431279,0.887514 -0.535553,1.366377 -0.07746,0.355691 0.03939,0.730965 0,1.0931 -0.139844,1.284458 -0.39571,2.5414 -0.535553,3.82586 -0.13404,1.231079 0,2.586377 0,3.825853 0,1.912928 0,3.825858 0,5.738787 0,0.728735 0,1.457467 0,2.1862 0,0.182196 -0.178507,0.546553 0,0.546553 0.08926,0 -0.06313,-0.208863 0,-0.273277 1.785172,-1.821833 -0.624811,1.366376 0.80333,-0.819823 1.419924,-2.173641 3.218602,-4.240794 5.087733,-6.012064 2.767643,-2.622741 5.720653,-5.103503 8.301037,-7.92499 2.633887,-2.879973 0.699022,-1.144142 3.74886,-4.645681 0.670906,-0.770267 1.453167,-1.432789 2.142204,-2.186199 1.715417,-1.875704 2.728164,-4.026804 4.284406,-6.012067 0.473135,-0.603561 1.097183,-1.067722 1.606654,-1.639653 1.835181,-2.060163 3.680126,-4.473978 6.158836,-5.738784 1.5785,-0.805462 7.020613,1.846942 8.033262,2.732754 0.33886,0.296412 0.464493,0.796693 0.803333,1.093108 0.60616,0.530228 1.49257,0.619535 2.14222,1.093099 2.84043,2.070552 -1.04959,-0.260095 1.60665,1.366375 0.17114,0.104783 0.4158,0.11033 0.53556,0.273278 0.16934,0.230445 0.14154,0.562178 0.26777,0.819823 0.25125,0.512818 1.16188,0.8245 1.33888,1.366381 0.0564,0.172825 -0.0433,0.369805 0,0.546549 0.28302,1.155364 0.90312,2.352605 1.07111,3.552585 0.2958,2.113098 -0.4471,0.02764 0.26778,2.459475 0.13812,0.469856 0.44956,0.883745 0.53554,1.366381 0.0958,0.537735 -0.0445,1.094991 0,1.639656 0.045,0.552169 0.21376,1.08831 0.26778,1.639652 0.0888,0.906396 -0.0685,1.824514 0,2.732753 0.29496,3.913202 0.26778,7.813382 0.26778,11.750848 0,1.988934 0.11428,4.029075 0,6.012057 -0.24418,4.236331 -0.21075,0.139185 -0.80332,4.372407 -0.34956,2.497154 0.0802,5.166355 -0.26778,7.651709 -0.1041,0.743614 -0.42364,1.44378 -0.53556,2.186209 -0.20102,1.333391 0.14607,2.757475 0,4.099127 -0.31019,2.848985 -1.03266,5.556169 -2.14221,8.198265 -0.30916,0.736191 -0.64725,3.120003 -1.0711,3.552573 -0.0924,0.0943 -1.68805,-1.580035 -1.87444,-1.912925 -0.18259,-0.326099 -0.15139,-0.736797 -0.26777,-1.093103 -0.67787,-2.075364 -1.28215,-4.169758 -1.874433,-6.285327 -0.61435,-2.194319 -0.66535,-4.032228 -0.803339,-6.285334 -0.0449,-0.732976 -0.22552,-1.453068 -0.26778,-2.186207 -0.34387,-5.965896 0,-12.057181 0,-18.036183 0,-4.621665 0.476249,-9.382142 -2.142193,-13.390494 -1.102974,-1.688454 -3.54021,-0.516381 -5.08774,0.273276 -2.42643,1.238126 -6.352016,3.997622 -8.033265,6.285336 -0.458096,0.623343 -0.536213,1.640325 -1.0711,2.186201 -0.227571,0.232243 -0.57576,0.314315 -0.80333,0.546552 -0.745256,0.760563 -0.832638,1.871697 -1.338876,2.732754 -0.296061,0.503573 -1.747178,2.490869 -2.142205,2.732759 -0.342289,0.209589 -0.764445,0.285753 -1.071101,0.546544 -0.7213,0.613435 -1.15313,1.846051 -1.87443,2.459485 -0.306657,0.260794 -0.764445,0.285753 -1.071101,0.546547 -0.247231,0.210262 -0.307984,0.587586 -0.535552,0.819829 -0.187077,0.190918 -3.707712,1.849873 -4.01663,1.91293 -0.437628,0.08931 -0.901251,-0.08933 -1.338876,0 -2.021145,0.412528 -3.855145,0.207784 -5.891063,0 -0.444079,-0.04534 -0.898654,0.07487 -1.338879,0 -0.640969,-0.109027 -1.235093,-0.427926 -1.874421,-0.546555 -1.738721,-0.32262 -3.622359,-0.192793 -5.355514,-0.546552 -0.701332,-0.143156 -1.070333,-0.72821 -1.60665,-1.0931 -0.166064,-0.112983 -0.432868,-0.09862 -0.535555,-0.273276 -0.189341,-0.322055 -0.138561,-0.74143 -0.267777,-1.093099 -0.140158,-0.381439 -0.378305,-0.718665 -0.535546,-1.093102 -1.279562,-3.046969 -0.803331,-6.884301 -0.803331,-10.111193 0,-1.0931 0,-2.186207 0,-3.279306 0,-0.326886 0.267777,-0.873439 0.267777,-0.546553 0,0.453171 -0.37552,0.191627 -0.535552,0.273277 -0.511194,0.260847 -0.738902,0.891748 -1.071101,1.366375 -1.572189,2.246276 -2.8141,4.703354 -4.552183,6.831888 -0.768767,0.941465 -1.731879,1.72133 -2.409976,2.732753 -0.496414,0.740431 -0.694776,1.648694 -1.071105,2.459483 -1.29685,2.794027 -2.939251,5.585335 -4.016629,8.471534 -0.745632,1.997487 -0.841595,3.982073 -1.338877,6.012066 -0.294452,1.20199 -0.83301,2.33766 -1.071106,3.552578 -0.145193,0.740934 -0.303606,3.484753 -0.535548,4.372411 -0.196502,0.752008 -0.588141,1.439535 -0.803328,2.186201 -0.748607,2.597549 -1.178685,5.321532 -1.874426,7.92497 -0.218672,0.81827 -2.231143,5.593192 -0.535552,6.285372 0.667902,0.27264 1.947872,0 2.677754,0"
       id="path1" />
  </g>
</svg>
